<?xml version="1.0" encoding="UTF-8" standalone="no"?>
<svg
   xmlns:dc="http://purl.org/dc/elements/1.1/"
   xmlns:cc="http://creativecommons.org/ns#"
   xmlns:rdf="http://www.w3.org/1999/02/22-rdf-syntax-ns#"
   xmlns:svg="http://www.w3.org/2000/svg"
   xmlns="http://www.w3.org/2000/svg"
   xmlns:sodipodi="http://sodipodi.sourceforge.net/DTD/sodipodi-0.dtd"
   xmlns:inkscape="http://www.inkscape.org/namespaces/inkscape"
   width="160mm"
   height="90mm"
   viewBox="0 0 160 90"
   version="1.1"
   id="svg8"
   inkscape:version="1.0.2 (e86c870879, 2021-01-15)"
   sodipodi:docname="camera.svg">
  <defs
     id="defs2">
    <inkscape:path-effect
       effect="bend_path"
       id="path-effect889"
       is_visible="true"
       lpeversion="1"
       bendpath="m -130.36326,169.76738 c 25.16677,-14.13555 25.16677,-14.13555 25.16677,-14.13555 l 0.01,-7.27887 7.467105,-27.34907 7.565869,26.79674 -0.117404,7.81007 25.874574,14.25621"
       prop_scale="1"
       scale_y_rel="false"
       vertical="false"
       hide_knot="false" />
  </defs>
  <sodipodi:namedview
     id="base"
     pagecolor="#ffffff"
     bordercolor="#666666"
     borderopacity="1.0"
     inkscape:pageopacity="0.0"
     inkscape:pageshadow="2"
     inkscape:zoom="0.7"
     inkscape:cx="312.10073"
     inkscape:cy="-170.17551"
     inkscape:document-units="mm"
     inkscape:current-layer="layer1"
     inkscape:document-rotation="0"
     showgrid="false"
     inkscape:window-width="954"
     inkscape:window-height="2109"
     inkscape:window-x="1920"
     inkscape:window-y="22"
     inkscape:window-maximized="1" />
  <metadata
     id="metadata5">
    <rdf:RDF>
      <cc:Work
         rdf:about="">
        <dc:format>image/svg+xml</dc:format>
        <dc:type
           rdf:resource="http://purl.org/dc/dcmitype/StillImage" />
        <dc:title />
      </cc:Work>
    </rdf:RDF>
  </metadata>
  <g
     inkscape:label="Layer 1"
     inkscape:groupmode="layer"
     id="layer1">
    <g
       id="g2648"
       style="fill:#e5ffd5">
      <rect
         style="fill:#e5ffd5;stroke:#000000;stroke-width:0.357176"
         id="rect835-6"
         width="159.63799"
         height="89.682098"
         x="0.18101257"
         y="0.17642525" />
      <path
         style="fill:#e5ffd5;stroke:#000000;stroke-width:0.333813px;stroke-linecap:butt;stroke-linejoin:miter;stroke-opacity:1"
         d="m 58.118898,19.204122 c 0.02977,0.766875 -0.04924,1.537245 0,2.303502 0.02399,0.373524 0.07981,0.746128 0.163684,1.110895 0.01261,0.05477 0.09482,0.169909 0.119198,0.119254 0.253652,-0.527066 0.05952,-4.672814 1.381055,-4.854523 0.03676,-0.005 0.01419,0.07711 0,0.111305 -0.439712,1.064405 -0.909851,2.115976 -1.358328,3.176696 -0.444678,1.051747 -0.83768,2.126172 -1.321113,3.160656 -0.272204,0.582479 -1.907669,3.104021 -1.907669,3.85107 0,0.03723 0,-0.07446 0,-0.111808 0,-0.423145 0,-0.846277 0,-1.269422 0,-1.452922 -0.192004,-4.371599 0.477085,-5.742204 0.01606,-0.03294 0.0047,0.07357 0,0.109916 -0.144241,1.138734 -0.217875,2.289595 -0.446415,3.414422 -0.199276,0.980814 -0.523028,1.933031 -0.833375,2.884529 -0.601407,1.843837 -0.567553,0.841229 -0.567553,1.68266 0,0.03647 0.0095,-0.07433 0,-0.109537 -0.268944,-1.004626 0.02342,0.472285 -0.109499,-0.657211 -0.07036,-0.597761 -0.237018,-0.924329 -0.132169,-1.536526 0.121255,-0.707942 0.472999,-0.911356 0.507927,-0.800557 0.245405,0.778409 -0.02265,2.016396 -0.278014,2.761742 -0.159996,0.466985 -0.543751,0.863199 -0.60067,1.353568 -0.01389,0.119633 0.263791,-0.02789 0.340407,-0.120895 0.408431,-0.495366 0.744175,-1.047356 1.145671,-1.548363 0.68354,-0.852965 1.398086,-1.680666 2.108017,-2.511774 0.820605,-0.960673 1.587103,-1.973022 2.483428,-2.863392 1.584217,-1.57369 3.680659,-3.262382 5.557311,-4.586333 0.259772,-0.18326 0.562908,-0.299877 0.82034,-0.486419 0.09953,-0.07218 0.432204,-1.01881 0.537611,-1.160275 0.250604,-0.33636 0.609243,-0.580031 0.872979,-0.906182 0.315621,-0.390296 0.44523,-0.949782 0.719513,-1.32024 0.259622,-0.350658 1.65364,-0.205584 1.809691,-0.229574 0.986488,-0.151586 1.986317,-0.294274 2.928647,-0.623265 1.388364,-0.484715 2.721379,-1.125496 4.025755,-1.804703 1.47728,-0.769235 2.896342,-1.647729 4.306562,-2.5340353 1.139534,-0.7161949 2.213896,-1.5317306 3.338656,-2.2709309 0.605991,-0.3982591 1.176306,-0.8785954 1.85238,-1.1406521 0.338905,-0.1313691 0.742033,-0.1038586 1.090355,0 0.491909,0.146626 1.794155,1.1823343 2.186788,1.4376143 0.07307,0.3188066 0.282863,0.062467 0.413268,0.122914 3.590609,1.6635288 6.047449,2.99895 10.078219,3.602958 1.12787,0.169 2.2748,0.171613 3.41412,0.222545 0.14953,0.0063 2.11734,-0.08304 2.51572,0.145793 1.73057,0.993774 5.28635,4.00258 6.58508,5.093764 0.69732,0.585885 1.35214,1.221555 2.05473,1.801106 0.12757,0.105247 0.31895,0.263786 0.46193,0.180737 0.3234,-0.187854 0.55057,-0.535989 0.89935,-0.670929 0.042,-0.01628 -0.0101,0.09124 0,0.134953 0.0853,0.358672 0.1332,0.732865 0.28596,1.068368 0.15138,0.332473 0.38779,0.620879 0.61382,0.907847 0.87419,1.109898 0.99458,0.650006 1.92009,1.266847 0.60881,0.405755 0.88917,0.880577 1.29376,1.444101 0.022,0.03066 -0.006,-0.07597 0,-0.113197 0.0341,-0.198341 0.0807,-0.394322 0.12109,-0.591476"
         id="path903" />
      <path
         style="fill:#e5ffd5;stroke:#000000;stroke-width:0.333813px;stroke-linecap:butt;stroke-linejoin:miter;stroke-opacity:1"
         d="m 44.956059,89.724002 c 0.76605,0.04493 1.49781,0.0038 2.242603,-0.121526 0.115919,-0.01956 0.247093,0.05174 0.352684,0 0.461465,-0.226003 0.943898,-0.40467 1.471758,-0.499821 0.156404,-0.02814 0.326035,0.05035 0.476763,0 0.683967,-0.228665 -0.749768,-0.01931 0.356906,-0.237827 0.118846,-0.02347 0.248135,0.03723 0.363421,0 0.175141,-0.05653 0.307226,-0.209799 0.480284,-0.272442 0.304457,-0.110169 0.661375,-0.08266 0.974276,-0.240692 1.022977,-0.516504 1.966226,-1.094566 2.907582,-1.408501 0.684193,-0.228161 -0.214375,-0.01136 0.119186,-0.223328 0.248242,-0.158047 0.596736,-0.128492 0.827529,-0.238483 0.03417,-0.01628 -0.01963,-0.08127 0,-0.113576 0.02813,-0.04644 0.115364,0.02638 0.162839,0 0.08722,-0.04833 0.211706,-0.199754 0.233932,-0.21173 0.976312,-0.52588 -0.0301,0.101335 0.635618,-0.119254 0.209896,-0.06953 0.56193,-0.291839 0.767788,-0.400001 0.211641,-0.111178 0.339281,-0.407926 0.470215,-0.473446 0.26816,-0.134208 1.175441,-0.711993 1.287646,-0.936506 0.01776,-0.03559 -0.0281,-0.09111 0,-0.119255 0.100656,-0.100703 0.269745,-0.09099 0.46207,-0.219276 0.156691,-0.10449 0.174122,-0.218078 0.238383,-0.350684 0.09905,-0.204398 0.33278,-0.221611 0.471904,-0.359946 0.34909,-0.347137 0.40105,-0.997471 0.742207,-1.338791 0.06282,-0.06284 0.175748,-0.05616 0.238383,-0.119254 0.154864,-0.155851 0.274314,-0.475655 0.361793,-0.651192 0.0962,-0.193053 0.386231,-0.287775 0.482644,-0.480803 0.03643,-0.07294 0.06814,-0.307323 0.119186,-0.358331 0.132149,-0.132013 0.405251,-0.287296 0.500945,-0.38304 0.09215,-0.09225 0.07891,-0.360918 0.117673,-0.477043 0.09989,-0.299246 0.738756,-1.292086 0.955884,-1.556717 0.220756,-0.269035 0.581199,-0.455451 0.776661,-0.748779 0.07466,-0.112061 0.109738,-0.518094 0.240596,-0.71569 0.177424,-0.267899 0.392595,-0.413062 0.504264,-0.750267 0.04883,-0.147459 -0.09767,-0.182075 0,-0.357738 0.05777,-0.103985 0.20341,-0.136909 0.265182,-0.238496 0.32421,-0.533225 0.356451,-1.205088 0.59802,-1.771969 0.102485,-0.24049 0.296226,-0.435688 0.411407,-0.653198 0.151954,-0.286968 0.651044,-1.663415 0.704352,-1.957576 0.09195,-0.507418 -0.07846,-0.306023 0,-0.776996 0.06404,-0.384402 0.32659,-0.719602 0.391561,-1.10355 0.136243,-0.805125 0.517482,-1.586651 0.719452,-2.394905 0.08784,-0.351542 0,-0.828168 0,-1.192468 0,-0.119254 0.06906,-0.260555 0,-0.357738 -0.04664,-0.06562 -2.537453,-0.711362 -2.888259,-0.909614 -0.835995,-0.472437 -1.486242,-1.217543 -2.201282,-1.858626 -1.806696,-1.619815 -3.633054,-3.330339 -5.58772,-4.778516 -0.302624,-0.224211 -0.630466,-0.412178 -0.945698,-0.618255 -0.403792,-0.332663 -0.795631,-0.680393 -1.211381,-0.997976 -1.828937,-1.397042 -4.296337,-2.792015 -4.904348,-5.232288 -0.320229,-1.285233 -0.658065,-4.00788 -0.408178,-5.27132 0.142342,-0.719665 0.601657,-1.46857 0.842514,-2.160434 0.509561,-1.463724 0.943552,-2.834304 1.569388,-4.262327 1.687251,-3.849934 3.265433,-6.705691 5.52603,-10.267989 0.641986,-1.011656 1.347,-1.985276 1.934208,-3.029704 0.423142,-0.752628 0.566488,-1.648285 1.029765,-2.376872 0.964203,-1.516373 3.064143,-3.913448 4.297134,-5.08816 1.305858,-1.244145 2.33801,-1.796577 3.738455,-2.885236 0.876275,-0.681176 1.725857,-1.532072 2.746544,-2.020295 0.667608,-0.319349 1.401835,-0.477434 2.087095,-0.756843 0.782606,-0.319096 1.614931,-0.758508 2.466289,-0.882722 0.779855,-0.113827 1.744318,0 2.515409,0 0.708973,0 1.728744,-0.130876 2.457994,0 0.743232,0.133389 1.918363,0.420066 2.552278,0.62849 0.696101,0.22888 1.336071,0.614595 2.038847,0.822035 1.143586,0.337571 2.674195,0.336776 3.812658,0.822148 0.150598,0.06423 0.246403,0.22127 0.392231,0.295688 0.723842,0.369373 2.468141,0.972636 3.055377,1.164578 4.978304,1.627172 -0.111529,-0.134309 6.112005,1.643363 1.068519,0.305216 2.106769,0.708043 3.162669,1.054461 0.53288,0.174831 1.08878,0.28669 1.60357,0.50926 0.88948,0.384554 1.60672,1.188518 2.47346,1.601933 0.59057,0.28168 1.23863,0.426476 1.83799,0.688912 0.8651,0.378787 1.69165,0.841039 2.55095,1.232837 0.9078,0.413908 2.55572,0.795307 3.21431,1.718033 0.1579,0.221207 0.24545,0.486457 0.39582,0.712863 0.1715,0.258258 0.42429,0.461912 0.5671,0.73708 0.19312,0.372087 0.26996,0.794373 0.42905,1.182234 0.14043,0.342354 0.36175,0.652037 0.46868,1.006305 0.5232,1.73339 -0.30376,5.764389 -0.36931,7.647762 -0.0359,1.032162 0.0698,2.067934 0,3.098367 -0.0768,1.133106 -1.22182,8.215073 -1.22755,8.240084 -0.23897,1.043306 -0.69681,2.024144 -1.06522,3.029036 -0.89861,2.451175 -1.30808,3.470705 -2.53586,5.900692 -1.57601,3.119189 -3.35676,5.932986 -5.82488,8.39875 -0.20141,0.201205 -0.36165,0.446364 -0.58673,0.620652 -1.07724,0.83415 -1.93101,0.477939 -3.16049,0.636238 -2.306679,0.297013 -4.524033,1.292452 -6.879697,1.346868 -0.794366,0.0183 -1.628895,-0.322555 -2.412601,-0.414993 -0.428004,-0.05048 -1.275327,0.188624 -1.674464,0 -0.722273,-0.341307 -1.207233,-0.950956 -2.07694,-0.950956 -1.322868,0 -2.755135,-0.908213 -3.258781,0.830213 -0.210477,0.726505 0.03104,1.916953 0.238381,2.602205 0.236151,0.780391 0.258484,0.346431 0.357573,1.120587 0.208548,1.629318 0.668134,3.250117 1.680286,4.59788 0.208056,0.277049 0.565927,0.406348 0.805936,0.656189 0.642028,0.668342 0.169064,0.39277 1.166566,1.03422 1.125999,0.724069 2.400239,1.227764 3.553063,1.907691 0.329529,0.194365 0.620309,0.455463 0.965107,0.621208 1.308049,0.628729 2.778387,1.053552 4.134356,1.580467 1.377094,0.53513 2.696355,1.144135 4.110485,1.579079 0.73947,0.227429 1.64186,0.410197 2.35802,0.705506 0.14612,0.06019 0.24996,0.196675 0.39042,0.269174 1.25043,0.645488 2.48964,1.248801 3.57946,2.119497 0.46558,0.371973 0.0674,0.08909 0.36197,0.481371 0.88893,1.184013 -0.31971,-0.499997 0.47891,0.359883 0.20408,0.219731 0.35115,0.560218 0.53359,0.802538 0.23727,0.315134 0.53226,0.575765 0.77018,0.892653 0.2432,0.32393 0.005,0.227429 0.24059,0.656631 0.14739,0.268985 0.59538,0.508238 0.59538,0.83415 0,0.335653 0.33755,0.604234 0.33755,0.929414 0,0.04152 -0.0646,-0.06512 -0.10608,-0.06512"
         id="path891" />
      <path
         style="fill:#e5ffd5;stroke:#000000;stroke-width:0.333813px;stroke-linecap:butt;stroke-linejoin:miter;stroke-opacity:1"
         d="m 73.974888,25.538799 c -2.109183,-0.17343 -2.625797,0.596575 -3.891113,2.234991 -0.501587,0.649475 -1.102707,1.319369 -1.187225,2.16764 -0.06097,0.611996 0.03741,0.872387 0.266931,1.492964 0.402608,1.088596 1.538971,0.998657 2.535688,0.998657 0.441147,0 0.78106,0.0496 1.197818,-0.155018 1.019106,-0.500263 1.429013,-1.568239 2.025754,-2.439894 0.145735,-0.212878 0.37349,-0.370988 0.483342,-0.604423 0.09813,-0.20855 0.06451,-0.457407 0.121431,-0.680772 0.258097,-1.012602 0.489125,-2.195871 -0.487211,-3.016467 -0.289407,-0.243241 -0.791161,-0.04871 -1.065414,0.0025 z"
         id="path893" />
      <path
         style="fill:#e5ffd5;stroke:#000000;stroke-width:0.333813px;stroke-linecap:butt;stroke-linejoin:miter;stroke-opacity:1"
         d="m 96.279442,26.71577 c -0.271546,0.120769 -0.543641,0.240225 -0.814636,0.362168 -0.298997,0.134549 -0.645707,0.173417 -0.915382,0.359933 -0.603807,0.417643 -2.016156,3.032935 -1.725913,3.754998 0.478779,1.191105 1.977863,2.002211 3.234979,1.620698 0.833272,-0.252895 2.691074,-1.499147 3.385914,-2.03347 1.177386,-0.905399 0.08137,-1.295506 -0.415887,-2.374776 -0.173195,-0.375923 -0.110268,-1.001396 -0.721024,-0.869093 -1.377698,0.298464 -2.568168,1.070487 -4.033668,1.070487"
         id="path895" />
      <path
         style="fill:#e5ffd5;stroke:#000000;stroke-width:0.333813px;stroke-linecap:butt;stroke-linejoin:miter;stroke-opacity:1"
         d="m 70.778495,52.367785 c 0.471861,0.832951 0.770707,1.775262 1.460847,2.469865 0.907319,0.913185 2.203792,1.266153 3.3292,1.809309 0.358187,0.172875 0.687623,0.403799 1.052439,0.562187 0.966556,0.419649 2.077754,0.549857 3.082729,0.850504 0.63428,0.18976 1.671518,0.73732 2.372122,0.541276 0.679978,-0.190277 1.289138,-0.577784 1.945294,-0.83868 1.180456,-0.469345 2.715694,-0.79412 3.742616,-1.572895 0.524178,-0.397515 0.988587,-0.868311 1.479471,-1.306321 0.31077,-0.277289 1.415179,-1.329516 1.676794,-1.7344 0.15252,-0.236048 0.08596,-0.572686 0.238379,-0.808797 0.06456,-0.09995 0.203747,-0.136859 0.265707,-0.238484 0.253772,-0.416254 0.47889,-0.981495 0.47889,-1.473504"
         id="path897" />
      <path
         style="fill:#e5ffd5;stroke:#000000;stroke-width:0.333813px;stroke-linecap:butt;stroke-linejoin:miter;stroke-opacity:1"
         d="m 82.10566,40.84654 c -0.702828,0.182251 -1.439127,0.287043 -1.576023,1.106365 -0.0393,0.235228 0.0664,0.486419 0,0.715476 -0.06337,0.218607 -0.340035,0.870153 -0.146049,1.099449 0.04606,0.05439 0.146254,-0.02259 0.213882,0 0.844866,0.28216 1.042948,0.128012 1.73173,-0.388807 0.100505,-0.07546 0.265446,-0.03382 0.357573,-0.119254 0.05057,-0.04695 0.35126,-1.108851 0.35126,-1.244726 0,-0.119254 0.06888,-0.260428 0,-0.357737 -0.09387,-0.132619 -0.301096,-0.134196 -0.423687,-0.240793 -0.192151,-0.167095 -0.264469,-0.498029 -0.508686,-0.569973 -0.271867,-0.08013 -0.548693,0.169051 -0.832041,0.174995 -0.160179,0.0038 -0.445752,-0.261438 -0.161383,-0.261438"
         id="path899" />
      <path
         style="fill:#e5ffd5;stroke:#000000;stroke-width:0.333813px;stroke-linecap:butt;stroke-linejoin:miter;stroke-opacity:1"
         d="m 60.070826,15.964303 c 0.215668,0.158993 0.465798,0.279572 0.646996,0.476979 0.05358,0.05843 0.07583,0.83728 0.3441,0.596234 0.988323,-0.888009 1.056309,-2.565924 1.849296,-3.619287 0.135612,-0.180144 1.061514,-0.837393 1.061514,-1.063459 0,-0.174061 0.108452,0.344286 0.23012,0.468714 0.176275,0.18027 0.593257,0.399407 0.838556,0.481207 0.631059,0.210456 1.677709,-1.011756 1.710812,-1.037904 1.91477,-1.512372 3.782287,-3.1807596 5.888315,-4.4160958 0.320832,-0.1881948 0.618441,1.8748298 1.143199,2.1905948 0.221703,0.133401 2.298743,-0.2030476 2.779425,-0.1229137 0.358106,0.05969 0.692396,0.2232897 1.047839,0.2972397 1.944817,0.404619 4.348374,0.473673 6.298647,0.309973 1.019954,-0.08569 2.270045,-0.5955649 3.346342,-0.343654 0.778999,0.182314 1.696946,0.850416 2.205121,1.348016 0.818508,-0.0013 0.420136,0.845002 0.74215,1.179873 0.228989,0.238143 0.624341,0.220816 0.920123,0.367871 0.608509,0.30254 1.164762,0.726695 1.811437,0.935459 1.898487,0.612867 4.984745,1.232333 7.074032,1.133434 1.08446,-0.05136 2.14794,-0.323476 3.21283,-0.535017 0.31636,-0.06285 0.60293,-0.315677 0.92416,-0.286791 0.43901,0.0395 0.82181,0.31916 1.23196,0.48069 0.8629,0.339831 1.73024,0.668746 2.58717,1.023392 1.85035,0.765764 3.34806,1.414066 5.2398,1.951922 0.41331,0.117488 0.79763,-0.327628 1.21417,-0.433076 0.4095,-0.103733 0.83541,-0.131672 1.25657,-0.164155 2.10632,-0.162514 0.10507,0.727464 -0.77506,2.563578 -0.57583,1.201263 -0.92819,2.498397 -1.33624,3.766557 -0.0395,0.122535 -0.11945,0.434174 0,0.38627 0.36255,-0.145376 0.64632,-0.452826 0.90222,-0.748046 0.5948,-0.686161 1.10629,-1.440807 1.63509,-2.179074 0.47233,-0.659407 0.8919,-1.355714 1.36748,-2.012774 0.0884,-0.122156 0.2221,-0.433517 0.32041,-0.31921 0.30405,0.353523 0.0419,1.328203 0.24001,1.788323 0.29561,0.686741 0.92086,0.840964 1.06562,1.670987 0.18169,1.041778 0,2.621387 0,3.721379 0,0.0371 -0.0246,-0.08342 0,-0.111177 0.0607,-0.06827 0.14656,-0.111936 0.23032,-0.148229 0.38763,-0.168067 0.55134,-0.0925 0.74634,-0.479188"
         id="path901" />
    </g>
  </g>
</svg>
