<?xml version="1.0" encoding="UTF-8" standalone="no"?>
<svg
   xmlns:dc="http://purl.org/dc/elements/1.1/"
   xmlns:cc="http://creativecommons.org/ns#"
   xmlns:rdf="http://www.w3.org/1999/02/22-rdf-syntax-ns#"
   xmlns:svg="http://www.w3.org/2000/svg"
   xmlns="http://www.w3.org/2000/svg"
   xmlns:sodipodi="http://sodipodi.sourceforge.net/DTD/sodipodi-0.dtd"
   xmlns:inkscape="http://www.inkscape.org/namespaces/inkscape"
   width="160mm"
   height="90mm"
   viewBox="0 0 160 90"
   version="1.1"
   id="svg8"
   inkscape:version="1.0.2 (e86c870879, 2021-01-15)"
   sodipodi:docname="presentation.svg">
  <defs
     id="defs2">
    <inkscape:path-effect
       effect="bend_path"
       id="path-effect889"
       is_visible="true"
       lpeversion="1"
       bendpath="m -130.36326,169.76738 c 25.16677,-14.13555 25.16677,-14.13555 25.16677,-14.13555 l 0.01,-7.27887 7.467105,-27.34907 7.565869,26.79674 -0.117404,7.81007 25.874574,14.25621"
       prop_scale="1"
       scale_y_rel="false"
       vertical="false"
       hide_knot="false" />
  </defs>
  <sodipodi:namedview
     id="base"
     pagecolor="#ffffff"
     bordercolor="#666666"
     borderopacity="1.0"
     inkscape:pageopacity="0.0"
     inkscape:pageshadow="2"
     inkscape:zoom="0.24748737"
     inkscape:cx="1185.3585"
     inkscape:cy="328.56626"
     inkscape:document-units="mm"
     inkscape:current-layer="layer1"
     inkscape:document-rotation="0"
     showgrid="false"
     inkscape:window-width="954"
     inkscape:window-height="2109"
     inkscape:window-x="3840"
     inkscape:window-y="22"
     inkscape:window-maximized="1" />
  <metadata
     id="metadata5">
    <rdf:RDF>
      <cc:Work
         rdf:about="">
        <dc:format>image/svg+xml</dc:format>
        <dc:type
           rdf:resource="http://purl.org/dc/dcmitype/StillImage" />
        <dc:title />
      </cc:Work>
    </rdf:RDF>
  </metadata>
  <g
     inkscape:label="Layer 1"
     inkscape:groupmode="layer"
     id="layer1">
    <g
       id="g984"
       transform="matrix(1.2613603,0,0,1.2619508,-20.179299,-11.359757)"
       style="fill:#fff6d5">
      <rect
         style="fill:#fff6d5;stroke:#000000;stroke-width:0.283101"
         id="rect835"
         width="126.56017"
         height="71.066238"
         x="16.141552"
         y="9.1415501" />
      <path
         style="fill:#fff6d5;stroke:#000000;stroke-width:0.264583px;stroke-linecap:butt;stroke-linejoin:miter;stroke-opacity:1"
         d="m 22.527764,17.725679 c 0.645268,-0.126229 1.011906,-0.648094 1.640127,-0.801327 0.09238,-0.02253 0.192986,0.02296 0.285258,0 0.04323,-0.01076 0.04998,-0.0928 0.09449,-0.09449 0.181661,-0.0069 0.643793,0.589463 0.827838,0.681887 0.185372,0.09309 0.497719,-0.07127 0.661458,-0.09449 0.76386,-0.108352 1.587828,0.133862 2.347148,0 0.03441,-0.0061 0.370096,-0.192971 0.477663,-0.116609 0.549894,0.390378 -0.03877,0.02128 0.306596,0.398906 0.02,0.02187 -0.01521,-0.06347 0,-0.0889 0.06475,-0.10819 0.120947,-0.239067 0.232013,-0.298751 0.280271,-0.15061 1.206347,-0.09579 1.380017,-0.09579 0.664242,0 1.337791,0.110809 1.992725,0 0.496104,-0.08394 0.821179,-0.465867 0.847654,-0.443529 0.428151,0.361257 0.502367,0.842572 0.839213,1.067836 0.181454,0.121346 0.653918,-0.508609 1.103315,-0.657496 0.938702,-0.310996 2.154349,-0.283171 3.110873,-0.247317 1.713878,0.06424 0.928992,0.0028 2.090682,0.34227 0.135588,0.03962 0.305919,-0.03852 0.441788,0 0.485828,0.137756 1.090157,0.626892 1.62324,0.568671 0.589827,-0.06442 1.122516,-0.418245 1.711687,-0.488417 0.433367,-0.05162 0.872855,0 1.309283,0 1.189352,0 2.506557,-0.108138 3.646995,0.09449 0.589529,0.104747 0.282628,0.155595 0.919311,0.341733 0.317944,0.09295 0.654063,0.0097 0.948978,0.09589 0.385152,0.112572 0.786257,0.32496 1.144032,0.475524 0.250418,0.105385 0.455951,-0.303109 0.708935,-0.402173 0.439627,-0.17215 0.924751,-0.229707 1.396857,-0.234404 0.191178,-0.0019 0.03611,0.266866 0.09449,0.280558 0.690105,0.161842 1.425194,0.0068 2.115526,0.124121 0.498557,0.08475 1.043202,0.28877 1.549278,0.28968 0.47828,8.46e-4 0.534223,-0.616508 0.991473,-0.705998 0.162156,-0.03174 0.755952,-0.06171 0.755952,0.187817 0,0.02233 -0.01659,-0.05205 0,-0.06699 0.09378,-0.08439 0.194847,-0.167647 0.312206,-0.213933 0.406918,-0.160487 0.984702,-0.268402 1.426477,-0.324246 0.39968,-0.05052 0.147193,0.508771 0.624499,0.283482 0.738269,-0.348465 1.161348,-1.142979 1.714619,-1.697551 0.08532,-0.08552 0.235881,0.407255 0.278061,0.470527 0.108577,0.162866 0.388818,0.09449 0.558615,0.09449"
         id="path905" />
      <path
         style="fill:#fff6d5;stroke:#000000;stroke-width:0.264583px;stroke-linecap:butt;stroke-linejoin:miter;stroke-opacity:1"
         d="m 107.91541,22.10406 c -0.0502,0.40778 -0.13382,0.812824 -0.15049,1.223339 -0.0336,0.82741 0.0281,1.656662 0,2.484275 -0.0275,0.80897 -0.21307,1.628131 -0.11581,2.446066 0.16499,1.387486 0.38095,1.701213 0.52899,3.128172 0.0969,0.934222 -0.0974,1.846117 -0.0974,2.772976 0,1.665359 0.11493,3.381544 0,5.042553 -0.0863,1.246836 -0.47273,2.417908 -0.59474,3.637987 -0.11655,1.165508 0.14442,2.375733 0,3.537593 -0.10466,0.84202 -1.22918,5.582494 -0.96713,5.69936 0.1726,0.07698 0.37859,-0.01527 0.56696,0 0.32039,0.02596 0.63919,0.06905 0.95823,0.108268 0.62815,0.07722 1.81726,0.255158 2.41135,0.284514 0.51375,0.02537 1.03075,-0.04541 1.54312,0 0.64587,0.05724 1.2767,0.232733 1.92084,0.307001 1.39822,0.161219 2.80181,0.284766 4.20759,0.354135 1.67683,0.08274 3.36547,-0.07132 5.04286,0 0.69716,0.02964 1.39015,0.130915 2.08743,0.157752 0.68928,0.02653 2.27229,0.07105 3.10462,-0.140727 0.27289,-0.06944 0.50415,-0.259889 0.77558,-0.334795 0.56599,-0.156192 1.15819,-0.238168 1.74533,-0.237665 0.83938,7.94e-4 0.75363,0.150791 1.42694,0.253878 0.27268,0.04175 0.68368,0 0.94494,0 0.70869,0 3.05758,-0.137636 3.60812,0 0.27505,0.06876 0.75511,0.61091 1.08814,0.377976 0.0968,-0.06768 0.18898,-1.490744 0.18898,-1.620351 0,-1.985623 0,-3.971244 0,-5.956868 0,-0.917178 0.0478,-1.8356 0,-2.751535 -0.19355,-3.713104 -0.15103,0.544426 -0.15103,-2.742057 0,-1.103645 0.0574,-2.230641 0,-3.332956 -0.0777,-1.492448 -0.19438,-0.864579 -0.11568,-2.377625 0.0699,-1.343999 0.32099,-2.678721 0.38772,-4.023537 0.0754,-1.520664 -0.0284,-0.619218 -0.13086,-2.105377 -0.0748,-1.084622 0.0119,-2.178909 -0.0974,-3.259288 -0.0631,-0.624192 -0.29486,-1.21879 -0.4755,-1.804323 -0.11809,-0.382792 -0.18354,-0.690352 -0.44769,-1.001952 -0.26367,-0.311038 -0.54568,-0.225623 -0.89686,-0.308213 -0.54435,-0.12802 -1.08945,-0.283999 -1.65736,-0.328506 -1.21501,-0.09522 -2.46131,0.05048 -3.67812,0 -4.79265,-0.198832 0.40619,-0.176714 -5.95532,-0.331101 -2.87197,-0.0697 -6.18635,-0.121864 -9.06503,0 -0.99963,0.04232 -1.99237,0.267093 -2.9994,0.177687 -0.94494,-0.08389 -1.86801,-0.104809 -2.82165,-0.104809 -0.30571,0 -0.72162,-0.05921 -1.03395,0 -0.29526,0.05597 -0.52927,0.213673 -0.83353,0.213673"
         id="path907" />
      <path
         style="fill:#fff6d5;stroke:#000000;stroke-width:0.264583px;stroke-linecap:butt;stroke-linejoin:miter;stroke-opacity:1"
         d="m 107.89894,41.195363 c 0.90429,0.495411 1.64458,0.273192 2.57634,0.273192 0.63536,0 1.36768,0.08959 1.99986,0 0.44411,-0.06294 1.07952,-1.303821 1.43579,-1.614654 0.51061,-0.445481 1.41352,-0.516945 2.00224,-0.840658 0.58887,-0.323802 0.98292,-0.753231 1.66628,-0.942506 0.4799,-0.132919 1.00277,-0.0026 1.45823,-0.197819 0.55094,-0.236117 0.99586,-0.546875 1.65468,-0.377976 0.33004,0.08461 0.62535,0.277302 0.95419,0.36647 0.25906,0.07025 0.53833,0.04024 0.79789,0.108629 0.15933,0.04198 0.28516,0.172535 0.44341,0.218422 0.35788,0.103777 0.32846,-0.06472 0.6878,0.09449 1.392,0.616747 0.0624,0.01016 1.19246,0.776674 0.44036,0.298683 1.00991,0.385911 1.47158,0.643366 0.27329,0.152408 0.51572,0.35828 0.79551,0.49839 0.62537,0.313159 1.29596,0.459809 1.92922,0.726372 0.30328,0.127664 0.41275,0.250475 0.71657,0.310449 0.24497,0.04836 0.56842,0.02188 0.80341,0.09449 0.62566,0.19331 1.20665,0.542753 1.86233,0.652034 1.21982,0.203304 2.21921,-0.161745 3.30905,-0.379711 0.18978,-0.03796 0.48401,-0.0122 0.66146,-0.0945 0.0537,-0.0249 0.0198,-0.127371 0.0655,-0.16497 0.0352,-0.029 0.43821,-0.132723 0.51434,-0.176054 0.15916,-0.09059 0.0563,-0.409329 0.17884,-0.532935 0.0782,-0.07887 0.27846,0.05925 0.331,-0.03862 0.0741,-0.138054 0.11539,-0.121968 0.27274,-0.267346"
         id="path909" />
      <path
         style="fill:#fff6d5;stroke:#000000;stroke-width:0.264583px;stroke-linecap:butt;stroke-linejoin:miter;stroke-opacity:1"
         d="m 135.66254,78.526769 c 0.40435,-0.135179 0.8461,0.05668 1.16632,-0.263068 0.10738,-0.107227 -0.38346,0.252662 -0.27728,0.361085 0.18228,0.186132 0.37522,0.36907 0.59986,0.501002 0.25636,0.150553 0.28705,-0.355468 0.44507,-0.355468"
         id="path911" />
      <path
         style="fill:#fff6d5;stroke:#000000;stroke-width:0.264583px;stroke-linecap:butt;stroke-linejoin:miter;stroke-opacity:1"
         d="m 137.59651,78.77032 c 2.01872,0.106887 1.3953,-0.601514 2.41308,-1.619295"
         id="path913" />
      <path
         style="fill:#fff6d5;stroke:#000000;stroke-width:0.264583px;stroke-linecap:butt;stroke-linejoin:miter;stroke-opacity:1"
         d="m 140.00959,77.151025 c 0.30349,2.8551 -0.0734,1.906305 1.73217,1.49443 0.0287,-0.0066 -0.0598,-0.0069 -0.0884,0 -0.16959,0.0409 -0.35329,0.02841 -0.51473,0.09449 -0.01,0.004 -0.009,0.337156 0,0.354867 0.18028,0.354094 0.82601,0.183861 1.13171,0.183861 0.0289,0 -0.0643,0.01815 -0.0868,0 -0.0182,-0.01461 -0.01,-0.09116 0,-0.06991 0.14818,0.329195 0.27882,0.666012 0.41823,0.999019"
         id="path915" />
      <path
         style="fill:#fff6d5;stroke:#000000;stroke-width:0.264583px;stroke-linecap:butt;stroke-linejoin:miter;stroke-opacity:1"
         d="m 23.730348,29.269412 c 0.704647,-0.111956 1.344454,-0.212715 2.051001,-0.212715"
         id="path917" />
      <path
         style="fill:#fff6d5;stroke:#000000;stroke-width:0.264583px;stroke-linecap:butt;stroke-linejoin:miter;stroke-opacity:1"
         d="m 30.343062,29.464553 c 0.110485,-0.02003 0.847733,-0.598718 1.030092,-0.484757 0.740642,0.46286 1.043752,1.020345 2.010214,1.105456 0.119157,0.0105 1.03541,-0.15502 1.214371,-0.223827 0.246007,-0.09458 0.452332,-0.438907 0.769795,-0.286938 0.342738,0.02021 0.441118,0.388882 0.699317,0.523502 0.05992,0.03125 -0.02072,-0.177604 -0.0881,-0.182594 -0.02925,-0.0021 -0.02495,0.07255 0,0.08797 0.294608,0.182118 0.602705,0.34444 0.920877,0.481288 0.373869,0.160803 1.574763,0.237077 1.696302,0.246372 1.300943,0.09949 -0.289605,-0.638053 1.632376,-0.513519 0.77842,0.05044 1.541068,0.247166 2.316511,0.331856 0.776719,0.08483 1.558695,0.111922 2.337366,0.176414 0.73093,0.06054 1.470404,0.273642 2.194634,0.157824 0.242711,-0.03881 -0.219937,-0.522828 0.76045,-0.664824 0.372943,-0.05402 0.340691,0.06766 0.695764,0.240413 0.387991,0.188765 0.916903,0.282774 1.332421,0.317958 0.990724,0.08389 0.85993,-0.363164 1.502008,-0.404847 0.585234,-0.03799 2.593199,0.65378 2.79904,0.601401 0.0566,-0.01439 -0.05541,-0.491585 0,-0.513548 0.138697,-0.05497 0.301318,0.02943 0.44758,0 0.752702,-0.151477 0.619262,-0.03547 1.307896,0.06952 0.155691,0.02373 0.329813,0.06672 0.472472,0 0.06115,-0.0286 -0.06863,-0.138771 0.05661,-0.08839 0.312743,0.125804 0.04524,0.09617 0.373132,0.09617"
         id="path919" />
      <path
         style="fill:#fff6d5;stroke:#000000;stroke-width:0.264583px;stroke-linecap:butt;stroke-linejoin:miter;stroke-opacity:1"
         d="m 24.271267,37.081237 2.306338,0.184997"
         id="path921" />
      <path
         style="fill:#fff6d5;stroke:#000000;stroke-width:0.264583px;stroke-linecap:butt;stroke-linejoin:miter;stroke-opacity:1"
         d="m 29.236656,37.734766 c 2.664323,-0.470601 1.323195,-0.140793 3.272804,-0.739844 0.177683,-0.0546 0.341659,-0.226853 0.524007,-0.190772 0.269594,0.05335 0.611042,0.773184 0.66245,0.742399 1.173406,-0.702667 2.253409,-1.883584 3.626533,-2.171321 0.185417,-0.03885 0.457144,2.420355 0.482021,2.688264 0.0033,0.03584 -0.01712,0.13965 0,0.107985 0.4235,-0.783389 0.03489,-0.765831 1.098446,-1.616681 0.537552,-0.430043 2.390831,-1.436098 3.135122,-0.710044 0.225396,0.219871 0.04382,0.681752 0.307774,0.903483 0.149236,0.125363 1.896364,0.210138 1.980361,0.23149 0.853642,0.216974 0.657485,0.325622 1.264804,0.682058 0.192233,0.112821 0.558726,-0.385868 0.598085,-0.410186 0.181687,-0.112255 0.388623,-0.18025 0.592551,-0.243689 0.24026,-0.07474 0.200578,0.09857 0.27905,0.182737 0.01767,0.01894 1.047734,0.07998 1.320681,0.285017 0.106474,0.07998 0.09574,0.569124 0.09574,0.760444 0,0.103852 0.0099,-0.236556 0.09449,-0.296878 0.51776,-0.369477 0.793446,-0.269875 1.431922,-0.112813 0.586119,0.144185 2.499069,0.800359 2.983736,0.998964 0.169799,0.06958 1.769909,0.84061 1.783598,0.835929 0.06697,-0.02289 -0.07386,-0.387768 0.0945,-0.472469 0.12038,-0.06057 0.935943,0.420116 0.935943,-0.252378"
         id="path923" />
      <path
         style="fill:#fff6d5;stroke:#000000;stroke-width:0.264583px;stroke-linecap:butt;stroke-linejoin:miter;stroke-opacity:1"
         d="m 23.793906,45.460525 c 0.429205,-0.334473 0.723709,-0.07977 1.167056,-0.07977"
         id="path925" />
      <path
         style="fill:#fff6d5;stroke:#000000;stroke-width:0.264583px;stroke-linecap:butt;stroke-linejoin:miter;stroke-opacity:1"
         d="m 29.022016,46.289534 c 0.13671,-0.09174 0.250404,-0.235313 0.410133,-0.275225 0.347237,-0.08676 0.711745,-0.0864 1.069565,-0.09449 1.036794,-0.02344 2.074489,-0.02781 3.111174,0 7.432686,0.199417 0.937626,0.176467 4.82019,0.176467 0.555734,0 1.210128,0.203012 1.210128,0.750779 0,0.0249 -0.02474,-0.07753 0,-0.07471 0.241792,0.0275 0.473617,0.113321 0.713226,0.155831 2.141583,0.379942 4.328769,0.538089 6.454778,0.998882 0.289216,0.06269 0.555397,0.210412 0.844333,0.274365 0.02847,0.0063 -0.0231,-0.0697 0,-0.08748 0.178689,-0.137488 0.368583,-0.265856 0.575524,-0.355344 2.408314,-1.041415 1.217478,-0.487891 3.280093,-0.998516 0.08831,-0.02185 0.155723,-0.146902 0.243549,-0.123169 0.152034,0.04109 -0.04674,0.322078 0,0.472469 0.0087,0.02805 0.05966,-0.0073 0.0881,0 0.125878,0.03233 0.248084,0.07758 0.371586,0.118055 0.190111,0.0623 0.381307,0.121626 0.569225,0.19027 0.383609,0.140123 0.763892,0.413993 1.147863,0.527756 0.302048,0.08949 0.110543,-0.08202 0.377976,-0.188987 0.245877,-0.09835 1.480486,0.31744 1.717318,0.432293 0.08516,0.0413 0,0.189301 0,0.28395 0,0.02895 -0.02434,-0.07117 0,-0.08685 0.09546,-0.0615 0.209637,-0.08924 0.319264,-0.118857 0.156597,-0.0423 0.31546,-0.08168 0.477015,-0.09623 0.995844,-0.08967 1.535962,0.04234 2.482982,-0.435599 0.199456,-0.100663 0.0902,0.841592 0.66711,0.724456 0.700807,-0.142293 1.481556,-0.649084 2.236184,-0.395925 0.228055,0.07651 0.01185,0.07928 0.09272,0.189023 0.08722,0.118367 0.294063,0 0.441095,0 0.660233,0 1.277612,0.255656 1.954223,0.12328 3.277232,-0.987385 -0.138864,-0.06074 2.631945,-0.557847 0.301591,-0.05411 0.561105,-0.292854 0.867286,-0.304597 0.02872,-0.0011 -0.02043,0.066 0,0.08624 0.05436,0.05385 0.384051,0.247579 0.469334,0.190725 0.351994,-0.234664 0.529886,-0.278093 1.04684,-0.188989 0.37388,0.06444 0.733959,0.192505 1.100939,0.288758 0.453697,0.04361 0.910799,0.06029 1.361096,0.130823 1.974887,0.309364 2.086001,0.920234 3.726079,-0.710901 0.137131,-0.136385 0.214233,-0.323834 0.344017,-0.467228 0.01416,-0.01564 0.09625,0.870702 0.09625,0.383583"
         id="path927" />
      <path
         style="fill:#fff6d5;stroke:#000000;stroke-width:0.264583px;stroke-linecap:butt;stroke-linejoin:miter;stroke-opacity:1"
         d="m 61.359509,30.348182 c 0.41184,0.148386 0.88718,0.359529 1.341004,0.432816 0.449442,0.07258 0.863558,-0.276138 1.279501,-0.381522 0.556326,-0.140949 1.291328,0 1.866442,0 0.130665,0 1.152795,0.06406 1.227246,0.0945 0.469059,0.191786 0.331079,0.29041 0.96192,0.306422 0.324273,0.0082 1.152453,-0.370824 1.207359,-0.315582 0.05984,0.06021 0.05935,0.164362 0.118118,0.225621 0.465278,0.484987 2.369625,0.08416 2.974026,0.08416"
         id="path929" />
      <path
         style="fill:#fff6d5;stroke:#000000;stroke-width:0.264583px;stroke-linecap:butt;stroke-linejoin:miter;stroke-opacity:1"
         d="m 23.750972,55.539084 c 0.142772,0 0.28782,-0.0254 0.428315,0 0.04384,0.0079 0.05223,0.08041 0.09449,0.09449 0.296528,0.09884 0.589636,-0.285205 0.847701,-0.285205"
         id="path931" />
      <path
         style="fill:#fff6d5;stroke:#000000;stroke-width:0.264583px;stroke-linecap:butt;stroke-linejoin:miter;stroke-opacity:1"
         d="m 30.82559,55.50174 0.824839,0.238334"
         id="path933" />
      <path
         style="fill:#fff6d5;stroke:#000000;stroke-width:0.264583px;stroke-linecap:butt;stroke-linejoin:miter;stroke-opacity:1"
         d="m 31.650429,55.740074 2.072526,-0.02662"
         id="path935" />
      <path
         style="fill:#fff6d5;stroke:#000000;stroke-width:0.264583px;stroke-linecap:butt;stroke-linejoin:miter;stroke-opacity:1"
         d="m 33.722955,55.713452 2.133291,-0.03133"
         id="path937" />
      <path
         style="fill:#fff6d5;stroke:#000000;stroke-width:0.264583px;stroke-linecap:butt;stroke-linejoin:miter;stroke-opacity:1"
         d="m 24.318744,62.106714 c 0.301173,-0.04527 0.74141,-0.174617 1.061905,-0.09449 0.434321,0.108579 0.02144,0.09449 0.283482,0.09449"
         id="path939" />
      <path
         style="fill:#fff6d5;stroke:#000000;stroke-width:0.264583px;stroke-linecap:butt;stroke-linejoin:miter;stroke-opacity:1"
         d="m 30.937804,60.566151 c 0.249216,-0.110892 0.495641,-0.22828 0.747646,-0.332679 0.432369,-0.17912 0.443312,-0.0548 0.676431,0.342477 0.295588,0.503735 -0.294071,1.327552 -0.294071,1.052255"
         id="path941" />
      <path
         style="fill:#fff6d5;stroke:#000000;stroke-width:0.185765px;stroke-linecap:butt;stroke-linejoin:miter;stroke-opacity:1"
         d="m 31.793459,63.750289 c -0.01887,-0.170419 -0.0319,-0.343907 -0.0566,-0.511258 -0.0099,-0.06733 -0.03565,-0.121897 -0.04669,-0.188522 -0.01414,-0.08529 0.03367,-0.375832 -0.06957,-0.262844 -0.05277,0.05776 -0.123579,0.523084 -0.08093,0.626801 0.0169,0.04109 0.103352,-0.03702 0.122838,0 0.0514,0.09763 0.06039,0.334627 0.130956,0.335823 0.109871,0.0019 0.447688,-0.600932 0.37417,-0.897768 -0.04201,-0.169638 -0.121723,-0.295145 -0.199083,-0.402774 -0.0097,-0.01352 -0.150779,-0.01599 -0.162273,0 -0.01518,0.02109 0,0.148794 0,0.111596 0,-0.0372 0,-0.0744 0,-0.111596"
         id="path943" />
    </g>
  </g>
</svg>
