<?xml version="1.0" encoding="UTF-8" standalone="no"?>
<svg
   xmlns:dc="http://purl.org/dc/elements/1.1/"
   xmlns:cc="http://creativecommons.org/ns#"
   xmlns:rdf="http://www.w3.org/1999/02/22-rdf-syntax-ns#"
   xmlns:svg="http://www.w3.org/2000/svg"
   xmlns="http://www.w3.org/2000/svg"
   xmlns:sodipodi="http://sodipodi.sourceforge.net/DTD/sodipodi-0.dtd"
   xmlns:inkscape="http://www.inkscape.org/namespaces/inkscape"
   width="160mm"
   height="90mm"
   viewBox="0 0 160 90"
   version="1.1"
   id="svg8"
   inkscape:version="1.0.2 (e86c870879, 2021-01-15)"
   sodipodi:docname="sbs.svg">
  <defs
     id="defs2">
    <inkscape:path-effect
       effect="bend_path"
       id="path-effect889"
       is_visible="true"
       lpeversion="1"
       bendpath="m -130.36326,169.76738 c 25.16677,-14.13555 25.16677,-14.13555 25.16677,-14.13555 l 0.01,-7.27887 7.467105,-27.34907 7.565869,26.79674 -0.117404,7.81007 25.874574,14.25621"
       prop_scale="1"
       scale_y_rel="false"
       vertical="false"
       hide_knot="false" />
  </defs>
  <sodipodi:namedview
     id="base"
     pagecolor="#ffffff"
     bordercolor="#666666"
     borderopacity="1.0"
     inkscape:pageopacity="0.0"
     inkscape:pageshadow="2"
     inkscape:zoom="3.959798"
     inkscape:cx="513.8839"
     inkscape:cy="21.726104"
     inkscape:document-units="mm"
     inkscape:current-layer="layer1"
     inkscape:document-rotation="0"
     showgrid="false"
     inkscape:window-width="3834"
     inkscape:window-height="2109"
     inkscape:window-x="1920"
     inkscape:window-y="22"
     inkscape:window-maximized="1"
     showguides="false" />
  <metadata
     id="metadata5">
    <rdf:RDF>
      <cc:Work
         rdf:about="">
        <dc:format>image/svg+xml</dc:format>
        <dc:type
           rdf:resource="http://purl.org/dc/dcmitype/StillImage" />
        <dc:title />
      </cc:Work>
    </rdf:RDF>
  </metadata>
  <g
     inkscape:label="Layer 1"
     inkscape:groupmode="layer"
     id="layer1">
    <g
       id="g984"
       transform="matrix(0.99221516,0,0,0.99267966,-12.699628,-4.0014252)"
       style="fill:#fff6d5">
      <rect
         style="fill:#fff6d5;stroke:#000000;stroke-width:0.283101"
         id="rect835"
         width="126.56017"
         height="71.066238"
         x="16.141552"
         y="9.1415501" />
      <path
         style="fill:#fff6d5;stroke:#000000;stroke-width:0.264583px;stroke-linecap:butt;stroke-linejoin:miter;stroke-opacity:1"
         d="m 22.527764,17.725679 c 0.645268,-0.126229 1.011906,-0.648094 1.640127,-0.801327 0.09238,-0.02253 0.192986,0.02296 0.285258,0 0.04323,-0.01076 0.04998,-0.0928 0.09449,-0.09449 0.181661,-0.0069 0.643793,0.589463 0.827838,0.681887 0.185372,0.09309 0.497719,-0.07127 0.661458,-0.09449 0.76386,-0.108352 1.587828,0.133862 2.347148,0 0.03441,-0.0061 0.370096,-0.192971 0.477663,-0.116609 0.549894,0.390378 -0.03877,0.02128 0.306596,0.398906 0.02,0.02187 -0.01521,-0.06347 0,-0.0889 0.06475,-0.10819 0.120947,-0.239067 0.232013,-0.298751 0.280271,-0.15061 1.206347,-0.09579 1.380017,-0.09579 0.664242,0 1.337791,0.110809 1.992725,0 0.496104,-0.08394 0.821179,-0.465867 0.847654,-0.443529 0.428151,0.361257 0.502367,0.842572 0.839213,1.067836 0.181454,0.121346 0.653918,-0.508609 1.103315,-0.657496 0.938702,-0.310996 2.154349,-0.283171 3.110873,-0.247317 1.713878,0.06424 0.928992,0.0028 2.090682,0.34227 0.135588,0.03962 0.305919,-0.03852 0.441788,0 0.485828,0.137756 1.090157,0.626892 1.62324,0.568671 0.589827,-0.06442 1.122516,-0.418245 1.711687,-0.488417 0.433367,-0.05162 0.872855,0 1.309283,0 1.189352,0 2.506557,-0.108138 3.646995,0.09449 0.589529,0.104747 0.282628,0.155595 0.919311,0.341733 0.317944,0.09295 0.654063,0.0097 0.948978,0.09589 0.385152,0.112572 0.786257,0.32496 1.144032,0.475524 0.250418,0.105385 0.455951,-0.303109 0.708935,-0.402173 0.439627,-0.17215 0.924751,-0.229707 1.396857,-0.234404 0.191178,-0.0019 0.03611,0.266866 0.09449,0.280558 0.690105,0.161842 1.425194,0.0068 2.115526,0.124121 0.498557,0.08475 1.043202,0.28877 1.549278,0.28968 0.47828,8.46e-4 0.534223,-0.616508 0.991473,-0.705998 0.162156,-0.03174 0.755952,-0.06171 0.755952,0.187817 0,0.02233 -0.01659,-0.05205 0,-0.06699 0.09378,-0.08439 0.194847,-0.167647 0.312206,-0.213933 0.406918,-0.160487 0.984702,-0.268402 1.426477,-0.324246 0.39968,-0.05052 0.147193,0.508771 0.624499,0.283482 0.738269,-0.348465 1.161348,-1.142979 1.714619,-1.697551 0.08532,-0.08552 0.235881,0.407255 0.278061,0.470527 0.108577,0.162866 0.388818,0.09449 0.558615,0.09449"
         id="path905" />
      <path
         style="fill:#fff6d5;stroke:#000000;stroke-width:0.264583px;stroke-linecap:butt;stroke-linejoin:miter;stroke-opacity:1"
         d="m 107.91541,22.10406 c -0.0502,0.40778 -0.13382,0.812824 -0.15049,1.223339 -0.0336,0.82741 0.0281,1.656662 0,2.484275 -0.0275,0.80897 -0.21307,1.628131 -0.11581,2.446066 0.16499,1.387486 0.38095,1.701213 0.52899,3.128172 0.0969,0.934222 -0.0974,1.846117 -0.0974,2.772976 0,1.665359 0.11493,3.381544 0,5.042553 -0.0863,1.246836 -0.47273,2.417908 -0.59474,3.637987 -0.11655,1.165508 0.14442,2.375733 0,3.537593 -0.10466,0.84202 -1.22918,5.582494 -0.96713,5.69936 0.1726,0.07698 0.37859,-0.01527 0.56696,0 0.32039,0.02596 0.63919,0.06905 0.95823,0.108268 0.62815,0.07722 1.81726,0.255158 2.41135,0.284514 0.51375,0.02537 1.03075,-0.04541 1.54312,0 0.64587,0.05724 1.2767,0.232733 1.92084,0.307001 1.39822,0.161219 2.80181,0.284766 4.20759,0.354135 1.67683,0.08274 3.36547,-0.07132 5.04286,0 0.69716,0.02964 1.39015,0.130915 2.08743,0.157752 0.68928,0.02653 2.27229,0.07105 3.10462,-0.140727 0.27289,-0.06944 0.50415,-0.259889 0.77558,-0.334795 0.56599,-0.156192 1.15819,-0.238168 1.74533,-0.237665 0.83938,7.94e-4 0.75363,0.150791 1.42694,0.253878 0.27268,0.04175 0.68368,0 0.94494,0 0.70869,0 3.05758,-0.137636 3.60812,0 0.27505,0.06876 0.75511,0.61091 1.08814,0.377976 0.0968,-0.06768 0.18898,-1.490744 0.18898,-1.620351 0,-1.985623 0,-3.971244 0,-5.956868 0,-0.917178 0.0478,-1.8356 0,-2.751535 -0.19355,-3.713104 -0.15103,0.544426 -0.15103,-2.742057 0,-1.103645 0.0574,-2.230641 0,-3.332956 -0.0777,-1.492448 -0.19438,-0.864579 -0.11568,-2.377625 0.0699,-1.343999 0.32099,-2.678721 0.38772,-4.023537 0.0754,-1.520664 -0.0284,-0.619218 -0.13086,-2.105377 -0.0748,-1.084622 0.0119,-2.178909 -0.0974,-3.259288 -0.0631,-0.624192 -0.29486,-1.21879 -0.4755,-1.804323 -0.11809,-0.382792 -0.18354,-0.690352 -0.44769,-1.001952 -0.26367,-0.311038 -0.54568,-0.225623 -0.89686,-0.308213 -0.54435,-0.12802 -1.08945,-0.283999 -1.65736,-0.328506 -1.21501,-0.09522 -2.46131,0.05048 -3.67812,0 -4.79265,-0.198832 0.40619,-0.176714 -5.95532,-0.331101 -2.87197,-0.0697 -6.18635,-0.121864 -9.06503,0 -0.99963,0.04232 -1.99237,0.267093 -2.9994,0.177687 -0.94494,-0.08389 -1.86801,-0.104809 -2.82165,-0.104809 -0.30571,0 -0.72162,-0.05921 -1.03395,0 -0.29526,0.05597 -0.52927,0.213673 -0.83353,0.213673"
         id="path907" />
      <path
         style="fill:#fff6d5;stroke:#000000;stroke-width:0.264583px;stroke-linecap:butt;stroke-linejoin:miter;stroke-opacity:1"
         d="m 107.89894,41.195363 c 0.90429,0.495411 1.64458,0.273192 2.57634,0.273192 0.63536,0 1.36768,0.08959 1.99986,0 0.44411,-0.06294 1.07952,-1.303821 1.43579,-1.614654 0.51061,-0.445481 1.41352,-0.516945 2.00224,-0.840658 0.58887,-0.323802 0.98292,-0.753231 1.66628,-0.942506 0.4799,-0.132919 1.00277,-0.0026 1.45823,-0.197819 0.55094,-0.236117 0.99586,-0.546875 1.65468,-0.377976 0.33004,0.08461 0.62535,0.277302 0.95419,0.36647 0.25906,0.07025 0.53833,0.04024 0.79789,0.108629 0.15933,0.04198 0.28516,0.172535 0.44341,0.218422 0.35788,0.103777 0.32846,-0.06472 0.6878,0.09449 1.392,0.616747 0.0624,0.01016 1.19246,0.776674 0.44036,0.298683 1.00991,0.385911 1.47158,0.643366 0.27329,0.152408 0.51572,0.35828 0.79551,0.49839 0.62537,0.313159 1.29596,0.459809 1.92922,0.726372 0.30328,0.127664 0.41275,0.250475 0.71657,0.310449 0.24497,0.04836 0.56842,0.02188 0.80341,0.09449 0.62566,0.19331 1.20665,0.542753 1.86233,0.652034 1.21982,0.203304 2.21921,-0.161745 3.30905,-0.379711 0.18978,-0.03796 0.48401,-0.0122 0.66146,-0.0945 0.0537,-0.0249 0.0198,-0.127371 0.0655,-0.16497 0.0352,-0.029 0.43821,-0.132723 0.51434,-0.176054 0.15916,-0.09059 0.0563,-0.409329 0.17884,-0.532935 0.0782,-0.07887 0.27846,0.05925 0.331,-0.03862 0.0741,-0.138054 0.11539,-0.121968 0.27274,-0.267346"
         id="path909" />
      <path
         style="fill:#fff6d5;stroke:#000000;stroke-width:0.264583px;stroke-linecap:butt;stroke-linejoin:miter;stroke-opacity:1"
         d="m 135.66254,78.526769 c 0.40435,-0.135179 0.8461,0.05668 1.16632,-0.263068 0.10738,-0.107227 -0.38346,0.252662 -0.27728,0.361085 0.18228,0.186132 0.37522,0.36907 0.59986,0.501002 0.25636,0.150553 0.28705,-0.355468 0.44507,-0.355468"
         id="path911" />
      <path
         style="fill:#fff6d5;stroke:#000000;stroke-width:0.264583px;stroke-linecap:butt;stroke-linejoin:miter;stroke-opacity:1"
         d="m 137.59651,78.77032 c 2.01872,0.106887 1.3953,-0.601514 2.41308,-1.619295"
         id="path913" />
      <path
         style="fill:#fff6d5;stroke:#000000;stroke-width:0.264583px;stroke-linecap:butt;stroke-linejoin:miter;stroke-opacity:1"
         d="m 140.00959,77.151025 c 0.30349,2.8551 -0.0734,1.906305 1.73217,1.49443 0.0287,-0.0066 -0.0598,-0.0069 -0.0884,0 -0.16959,0.0409 -0.35329,0.02841 -0.51473,0.09449 -0.01,0.004 -0.009,0.337156 0,0.354867 0.18028,0.354094 0.82601,0.183861 1.13171,0.183861 0.0289,0 -0.0643,0.01815 -0.0868,0 -0.0182,-0.01461 -0.01,-0.09116 0,-0.06991 0.14818,0.329195 0.27882,0.666012 0.41823,0.999019"
         id="path915" />
      <path
         style="fill:#fff6d5;stroke:#000000;stroke-width:0.264583px;stroke-linecap:butt;stroke-linejoin:miter;stroke-opacity:1"
         d="m 23.730348,29.269412 c 0.704647,-0.111956 1.344454,-0.212715 2.051001,-0.212715"
         id="path917" />
      <path
         style="fill:#fff6d5;stroke:#000000;stroke-width:0.264583px;stroke-linecap:butt;stroke-linejoin:miter;stroke-opacity:1"
         d="m 30.343062,29.464553 c 0.110485,-0.02003 0.847733,-0.598718 1.030092,-0.484757 0.740642,0.46286 1.043752,1.020345 2.010214,1.105456 0.119157,0.0105 1.03541,-0.15502 1.214371,-0.223827 0.246007,-0.09458 0.452332,-0.438907 0.769795,-0.286938 0.342738,0.02021 0.441118,0.388882 0.699317,0.523502 0.05992,0.03125 -0.02072,-0.177604 -0.0881,-0.182594 -0.02925,-0.0021 -0.02495,0.07255 0,0.08797 0.294608,0.182118 0.602705,0.34444 0.920877,0.481288 0.373869,0.160803 1.574763,0.237077 1.696302,0.246372 1.300943,0.09949 -0.289605,-0.638053 1.632376,-0.513519 0.77842,0.05044 1.541068,0.247166 2.316511,0.331856 0.776719,0.08483 1.558695,0.111922 2.337366,0.176414 0.73093,0.06054 1.470404,0.273642 2.194634,0.157824 0.242711,-0.03881 -0.219937,-0.522828 0.76045,-0.664824 0.372943,-0.05402 0.340691,0.06766 0.695764,0.240413 0.387991,0.188765 0.916903,0.282774 1.332421,0.317958 0.990724,0.08389 0.85993,-0.363164 1.502008,-0.404847 0.585234,-0.03799 2.593199,0.65378 2.79904,0.601401 0.0566,-0.01439 -0.05541,-0.491585 0,-0.513548 0.138697,-0.05497 0.301318,0.02943 0.44758,0 0.752702,-0.151477 0.619262,-0.03547 1.307896,0.06952 0.155691,0.02373 0.329813,0.06672 0.472472,0 0.06115,-0.0286 -0.06863,-0.138771 0.05661,-0.08839 0.312743,0.125804 0.04524,0.09617 0.373132,0.09617"
         id="path919" />
      <path
         style="fill:#fff6d5;stroke:#000000;stroke-width:0.264583px;stroke-linecap:butt;stroke-linejoin:miter;stroke-opacity:1"
         d="m 24.271267,37.081237 2.306338,0.184997"
         id="path921" />
      <path
         style="fill:#fff6d5;stroke:#000000;stroke-width:0.264583px;stroke-linecap:butt;stroke-linejoin:miter;stroke-opacity:1"
         d="m 29.236656,37.734766 c 2.664323,-0.470601 1.323195,-0.140793 3.272804,-0.739844 0.177683,-0.0546 0.341659,-0.226853 0.524007,-0.190772 0.269594,0.05335 0.611042,0.773184 0.66245,0.742399 1.173406,-0.702667 2.253409,-1.883584 3.626533,-2.171321 0.185417,-0.03885 0.457144,2.420355 0.482021,2.688264 0.0033,0.03584 -0.01712,0.13965 0,0.107985 0.4235,-0.783389 0.03489,-0.765831 1.098446,-1.616681 0.537552,-0.430043 2.390831,-1.436098 3.135122,-0.710044 0.225396,0.219871 0.04382,0.681752 0.307774,0.903483 0.149236,0.125363 1.896364,0.210138 1.980361,0.23149 0.853642,0.216974 0.657485,0.325622 1.264804,0.682058 0.192233,0.112821 0.558726,-0.385868 0.598085,-0.410186 0.181687,-0.112255 0.388623,-0.18025 0.592551,-0.243689 0.24026,-0.07474 0.200578,0.09857 0.27905,0.182737 0.01767,0.01894 1.047734,0.07998 1.320681,0.285017 0.106474,0.07998 0.09574,0.569124 0.09574,0.760444 0,0.103852 0.0099,-0.236556 0.09449,-0.296878 0.51776,-0.369477 0.793446,-0.269875 1.431922,-0.112813 0.586119,0.144185 2.499069,0.800359 2.983736,0.998964 0.169799,0.06958 1.769909,0.84061 1.783598,0.835929 0.06697,-0.02289 -0.07386,-0.387768 0.0945,-0.472469 0.12038,-0.06057 0.935943,0.420116 0.935943,-0.252378"
         id="path923" />
      <path
         style="fill:#fff6d5;stroke:#000000;stroke-width:0.264583px;stroke-linecap:butt;stroke-linejoin:miter;stroke-opacity:1"
         d="m 23.793906,45.460525 c 0.429205,-0.334473 0.723709,-0.07977 1.167056,-0.07977"
         id="path925" />
      <path
         style="fill:#fff6d5;stroke:#000000;stroke-width:0.264583px;stroke-linecap:butt;stroke-linejoin:miter;stroke-opacity:1"
         d="m 29.022016,46.289534 c 0.13671,-0.09174 0.250404,-0.235313 0.410133,-0.275225 0.347237,-0.08676 0.711745,-0.0864 1.069565,-0.09449 1.036794,-0.02344 2.074489,-0.02781 3.111174,0 7.432686,0.199417 0.937626,0.176467 4.82019,0.176467 0.555734,0 1.210128,0.203012 1.210128,0.750779 0,0.0249 -0.02474,-0.07753 0,-0.07471 0.241792,0.0275 0.473617,0.113321 0.713226,0.155831 2.141583,0.379942 4.328769,0.538089 6.454778,0.998882 0.289216,0.06269 0.555397,0.210412 0.844333,0.274365 0.02847,0.0063 -0.0231,-0.0697 0,-0.08748 0.178689,-0.137488 0.368583,-0.265856 0.575524,-0.355344 2.408314,-1.041415 1.217478,-0.487891 3.280093,-0.998516 0.08831,-0.02185 0.155723,-0.146902 0.243549,-0.123169 0.152034,0.04109 -0.04674,0.322078 0,0.472469 0.0087,0.02805 0.05966,-0.0073 0.0881,0 0.125878,0.03233 0.248084,0.07758 0.371586,0.118055 0.190111,0.0623 0.381307,0.121626 0.569225,0.19027 0.383609,0.140123 0.763892,0.413993 1.147863,0.527756 0.302048,0.08949 0.110543,-0.08202 0.377976,-0.188987 0.245877,-0.09835 1.480486,0.31744 1.717318,0.432293 0.08516,0.0413 0,0.189301 0,0.28395 0,0.02895 -0.02434,-0.07117 0,-0.08685 0.09546,-0.0615 0.209637,-0.08924 0.319264,-0.118857 0.156597,-0.0423 0.31546,-0.08168 0.477015,-0.09623 0.995844,-0.08967 1.535962,0.04234 2.482982,-0.435599 0.199456,-0.100663 0.0902,0.841592 0.66711,0.724456 0.700807,-0.142293 1.481556,-0.649084 2.236184,-0.395925 0.228055,0.07651 0.01185,0.07928 0.09272,0.189023 0.08722,0.118367 0.294063,0 0.441095,0 0.660233,0 1.277612,0.255656 1.954223,0.12328 3.277232,-0.987385 -0.138864,-0.06074 2.631945,-0.557847 0.301591,-0.05411 0.561105,-0.292854 0.867286,-0.304597 0.02872,-0.0011 -0.02043,0.066 0,0.08624 0.05436,0.05385 0.384051,0.247579 0.469334,0.190725 0.351994,-0.234664 0.529886,-0.278093 1.04684,-0.188989 0.37388,0.06444 0.733959,0.192505 1.100939,0.288758 0.453697,0.04361 0.910799,0.06029 1.361096,0.130823 1.974887,0.309364 2.086001,0.920234 3.726079,-0.710901 0.137131,-0.136385 0.214233,-0.323834 0.344017,-0.467228 0.01416,-0.01564 0.09625,0.870702 0.09625,0.383583"
         id="path927" />
      <path
         style="fill:#fff6d5;stroke:#000000;stroke-width:0.264583px;stroke-linecap:butt;stroke-linejoin:miter;stroke-opacity:1"
         d="m 61.359509,30.348182 c 0.41184,0.148386 0.88718,0.359529 1.341004,0.432816 0.449442,0.07258 0.863558,-0.276138 1.279501,-0.381522 0.556326,-0.140949 1.291328,0 1.866442,0 0.130665,0 1.152795,0.06406 1.227246,0.0945 0.469059,0.191786 0.331079,0.29041 0.96192,0.306422 0.324273,0.0082 1.152453,-0.370824 1.207359,-0.315582 0.05984,0.06021 0.05935,0.164362 0.118118,0.225621 0.465278,0.484987 2.369625,0.08416 2.974026,0.08416"
         id="path929" />
      <path
         style="fill:#fff6d5;stroke:#000000;stroke-width:0.264583px;stroke-linecap:butt;stroke-linejoin:miter;stroke-opacity:1"
         d="m 23.750972,55.539084 c 0.142772,0 0.28782,-0.0254 0.428315,0 0.04384,0.0079 0.05223,0.08041 0.09449,0.09449 0.296528,0.09884 0.589636,-0.285205 0.847701,-0.285205"
         id="path931" />
      <path
         style="fill:#fff6d5;stroke:#000000;stroke-width:0.264583px;stroke-linecap:butt;stroke-linejoin:miter;stroke-opacity:1"
         d="m 30.82559,55.50174 0.824839,0.238334"
         id="path933" />
      <path
         style="fill:#fff6d5;stroke:#000000;stroke-width:0.264583px;stroke-linecap:butt;stroke-linejoin:miter;stroke-opacity:1"
         d="m 31.650429,55.740074 2.072526,-0.02662"
         id="path935" />
      <path
         style="fill:#fff6d5;stroke:#000000;stroke-width:0.264583px;stroke-linecap:butt;stroke-linejoin:miter;stroke-opacity:1"
         d="m 33.722955,55.713452 2.133291,-0.03133"
         id="path937" />
      <path
         style="fill:#fff6d5;stroke:#000000;stroke-width:0.264583px;stroke-linecap:butt;stroke-linejoin:miter;stroke-opacity:1"
         d="m 24.318744,62.106714 c 0.301173,-0.04527 0.74141,-0.174617 1.061905,-0.09449 0.434321,0.108579 0.02144,0.09449 0.283482,0.09449"
         id="path939" />
      <path
         style="fill:#fff6d5;stroke:#000000;stroke-width:0.264583px;stroke-linecap:butt;stroke-linejoin:miter;stroke-opacity:1"
         d="m 30.937804,60.566151 c 0.249216,-0.110892 0.495641,-0.22828 0.747646,-0.332679 0.432369,-0.17912 0.443312,-0.0548 0.676431,0.342477 0.295588,0.503735 -0.294071,1.327552 -0.294071,1.052255"
         id="path941" />
      <path
         style="fill:#fff6d5;stroke:#000000;stroke-width:0.185765px;stroke-linecap:butt;stroke-linejoin:miter;stroke-opacity:1"
         d="m 31.793459,63.750289 c -0.01887,-0.170419 -0.0319,-0.343907 -0.0566,-0.511258 -0.0099,-0.06733 -0.03565,-0.121897 -0.04669,-0.188522 -0.01414,-0.08529 0.03367,-0.375832 -0.06957,-0.262844 -0.05277,0.05776 -0.123579,0.523084 -0.08093,0.626801 0.0169,0.04109 0.103352,-0.03702 0.122838,0 0.0514,0.09763 0.06039,0.334627 0.130956,0.335823 0.109871,0.0019 0.447688,-0.600932 0.37417,-0.897768 -0.04201,-0.169638 -0.121723,-0.295145 -0.199083,-0.402774 -0.0097,-0.01352 -0.150779,-0.01599 -0.162273,0 -0.01518,0.02109 0,0.148794 0,0.111596 0,-0.0372 0,-0.0744 0,-0.111596"
         id="path943" />
    </g>
    <ellipse
       style="fill:#00ffff;stroke:#000000;stroke-width:0.264583"
       id="path1051"
       cx="144.79979"
       cy="18.603516"
       rx="7.9257112"
       ry="7.321558" />
    <text
       xml:space="preserve"
       style="font-style:normal;font-weight:normal;font-size:3.52778px;line-height:1.25;font-family:sans-serif;letter-spacing:0px;word-spacing:0px;fill:#00ffff;fill-opacity:1;stroke:#00ffff;stroke-width:0.264583"
       x="137.17938"
       y="30.628263"
       id="text1055"><tspan
         sodipodi:role="line"
         x="137.17938"
         y="30.628263"
         style="font-style:normal;font-variant:normal;font-weight:normal;font-stretch:normal;font-size:3.52778px;font-family:'Comic Sans MS';-inkscape-font-specification:'Comic Sans MS';fill:#00ffff;stroke:#00ffff;stroke-width:0.264583"
         id="tspan1057">Cool Conf</tspan></text>
    <g
       id="g2684"
       style="fill:#e5ffd5">
      <rect
         style="fill:#e5ffd5;stroke:#000000;stroke-width:0.103023"
         id="rect835-6"
         width="46.056278"
         height="25.861582"
         x="112.46678"
         y="59.340252" />
      <path
         style="fill:#e5ffd5;stroke:#000000;stroke-width:0.0962839px;stroke-linecap:butt;stroke-linejoin:miter;stroke-opacity:1"
         d="m 125.38459,85.163042 c 0.221,0.01295 0.43212,0.0011 0.647,-0.03504 0.0334,-0.0056 0.0713,0.01492 0.10175,0 0.13313,-0.06517 0.27232,-0.116695 0.42461,-0.144134 0.0451,-0.0081 0.0941,0.01452 0.13755,0 0.19732,-0.06594 -0.21632,-0.0056 0.10296,-0.06858 0.0343,-0.0068 0.0716,0.01074 0.10485,0 0.0505,-0.0163 0.0886,-0.0605 0.13857,-0.07856 0.0878,-0.03177 0.19081,-0.02384 0.28108,-0.06941 0.29513,-0.148944 0.56726,-0.315639 0.83885,-0.406169 0.19739,-0.06579 -0.0618,-0.0033 0.0344,-0.0644 0.0716,-0.04557 0.17216,-0.03705 0.23874,-0.06877 0.01,-0.0047 -0.006,-0.02344 0,-0.03275 0.008,-0.01339 0.0333,0.0076 0.047,0 0.0252,-0.01394 0.0611,-0.0576 0.0675,-0.06106 0.28167,-0.151648 -0.009,0.02922 0.18338,-0.03439 0.0606,-0.02005 0.16212,-0.08416 0.22151,-0.115348 0.0611,-0.03206 0.0979,-0.117633 0.13566,-0.136527 0.0774,-0.0387 0.33912,-0.205317 0.37149,-0.27006 0.005,-0.01026 -0.008,-0.02627 0,-0.03439 0.029,-0.02904 0.0778,-0.02624 0.13331,-0.06323 0.0452,-0.03013 0.0502,-0.06289 0.0688,-0.101126 0.0286,-0.05894 0.096,-0.06391 0.13614,-0.103798 0.10072,-0.100104 0.11571,-0.28764 0.21413,-0.386066 0.0181,-0.01812 0.0507,-0.01619 0.0688,-0.03439 0.0447,-0.04494 0.0791,-0.137164 0.10438,-0.187783 0.0277,-0.05567 0.11142,-0.08299 0.13924,-0.138649 0.0105,-0.02103 0.0197,-0.08862 0.0344,-0.103332 0.0381,-0.03807 0.11691,-0.08285 0.14452,-0.110457 0.0266,-0.0266 0.0228,-0.104078 0.034,-0.137565 0.0288,-0.08629 0.21313,-0.372598 0.27578,-0.44891 0.0637,-0.07758 0.16768,-0.131338 0.22407,-0.215924 0.0215,-0.03231 0.0317,-0.149403 0.0694,-0.206384 0.0512,-0.07725 0.11327,-0.119114 0.14548,-0.216354 0.0141,-0.04252 -0.0282,-0.05251 0,-0.103161 0.0167,-0.02999 0.0587,-0.03948 0.0765,-0.06878 0.0935,-0.153765 0.10284,-0.34751 0.17253,-0.510981 0.0296,-0.06935 0.0855,-0.12564 0.11869,-0.188363 0.0438,-0.08275 0.18783,-0.479678 0.20321,-0.564505 0.0265,-0.146324 -0.0226,-0.08825 0,-0.224062 0.0185,-0.11085 0.0942,-0.207511 0.11297,-0.31823 0.0393,-0.232174 0.1493,-0.457542 0.20756,-0.690618 0.0253,-0.101374 0,-0.238818 0,-0.343871 0,-0.03439 0.0199,-0.07514 0,-0.103161 -0.0135,-0.01892 -0.73206,-0.205135 -0.83327,-0.262305 -0.24119,-0.136236 -0.42879,-0.351102 -0.63508,-0.535971 -0.52124,-0.467105 -1.04815,-0.960368 -1.61208,-1.377978 -0.0873,-0.06466 -0.1819,-0.11886 -0.27284,-0.178286 -0.1165,-0.09593 -0.22954,-0.196205 -0.34949,-0.287786 -0.52766,-0.402864 -1.23951,-0.805132 -1.41493,-1.508832 -0.0924,-0.370623 -0.18985,-1.155751 -0.11776,-1.520088 0.0411,-0.20753 0.17358,-0.423491 0.24307,-0.623004 0.14701,-0.422093 0.27222,-0.817326 0.45278,-1.229125 0.48678,-1.110204 0.94209,-1.933717 1.59428,-2.960975 0.18522,-0.29173 0.38862,-0.572493 0.55803,-0.873674 0.12208,-0.217035 0.16343,-0.475315 0.29709,-0.685418 0.27818,-0.437275 0.88402,-1.128519 1.23974,-1.46727 0.37675,-0.358773 0.67453,-0.518078 1.07856,-0.832014 0.25281,-0.19643 0.49792,-0.441803 0.79239,-0.582591 0.19261,-0.09209 0.40444,-0.137678 0.60214,-0.218251 0.22579,-0.09202 0.46592,-0.21873 0.71154,-0.25455 0.22499,-0.03282 0.50324,0 0.7257,0 0.20455,0 0.49875,-0.03774 0.70915,0 0.21442,0.03847 0.55345,0.121134 0.73634,0.181237 0.20083,0.066 0.38546,0.177231 0.58822,0.23705 0.32993,0.09735 0.77151,0.09712 1.09996,0.237083 0.0435,0.01852 0.0711,0.06381 0.11317,0.08527 0.20883,0.106516 0.71206,0.280479 0.88149,0.335829 1.43626,0.469227 -0.0322,-0.03873 1.76334,0.473896 0.30827,0.08802 0.60781,0.204178 0.91244,0.304074 0.15374,0.05042 0.31412,0.08267 0.46264,0.146855 0.25662,0.110894 0.46354,0.342733 0.7136,0.461949 0.17038,0.08123 0.35735,0.122983 0.53027,0.198661 0.24959,0.109231 0.48805,0.24253 0.73596,0.355513 0.26191,0.119358 0.73734,0.229342 0.92734,0.495428 0.0456,0.06379 0.0708,0.140279 0.1142,0.205568 0.0495,0.07447 0.12241,0.133201 0.16361,0.212551 0.0557,0.107299 0.0779,0.229073 0.12379,0.34092 0.0405,0.09873 0.10436,0.188028 0.13521,0.290188 0.15094,0.499857 -0.0876,1.662274 -0.10655,2.205382 -0.0104,0.297644 0.0201,0.596329 0,0.893474 -0.0222,0.326753 -0.3525,2.368977 -0.35415,2.376189 -0.0689,0.300858 -0.20104,0.583702 -0.30732,0.873482 -0.25925,0.706844 -0.37739,1.000845 -0.73161,1.70158 -0.45469,0.899479 -0.96844,1.710892 -1.6805,2.421943 -0.0581,0.05802 -0.10434,0.128718 -0.16928,0.178977 -0.31079,0.240544 -0.5571,0.137823 -0.91181,0.183472 -0.66549,0.08565 -1.30521,0.372704 -1.98483,0.388395 -0.22917,0.0053 -0.46994,-0.09302 -0.69604,-0.119671 -0.12348,-0.01456 -0.36794,0.05439 -0.48309,0 -0.20838,-0.09842 -0.3483,-0.274226 -0.59921,-0.274226 -0.38165,0 -0.79487,-0.261901 -0.94017,0.239407 -0.0607,0.209502 0.009,0.552791 0.0688,0.750397 0.0681,0.225041 0.0746,0.0999 0.10316,0.323143 0.0602,0.469846 0.19276,0.937235 0.48477,1.325889 0.06,0.07989 0.16327,0.117178 0.23252,0.189225 0.18523,0.192729 0.0488,0.113263 0.33656,0.298237 0.32485,0.2088 0.69248,0.35405 1.02507,0.55012 0.0951,0.05605 0.17896,0.131342 0.27844,0.179137 0.37738,0.181307 0.80158,0.303813 1.19278,0.455759 0.3973,0.154315 0.77791,0.329934 1.1859,0.455358 0.21334,0.06558 0.47368,0.118289 0.68029,0.203447 0.0422,0.01736 0.0721,0.05672 0.11264,0.07762 0.36076,0.186139 0.71827,0.360116 1.03269,0.611199 0.13432,0.107265 0.0194,0.02569 0.10443,0.138812 0.25646,0.341433 -0.0922,-0.144184 0.13817,0.10378 0.0589,0.06336 0.10131,0.161549 0.15394,0.231427 0.0685,0.09087 0.15356,0.166033 0.2222,0.257414 0.0702,0.09341 0.001,0.06558 0.0694,0.189352 0.0425,0.07757 0.17177,0.146561 0.17177,0.240544 0,0.09679 0.0974,0.174243 0.0974,0.268014 0,0.01197 -0.0186,-0.01878 -0.0306,-0.01878"
         id="path891" />
      <path
         style="fill:#e5ffd5;stroke:#000000;stroke-width:0.0962839px;stroke-linecap:butt;stroke-linejoin:miter;stroke-opacity:1"
         d="m 133.75665,66.653986 c -0.60851,-0.05001 -0.75756,0.172034 -1.1226,0.644503 -0.14471,0.187289 -0.31814,0.380466 -0.34252,0.625082 -0.0176,0.176481 0.0108,0.251569 0.077,0.430525 0.11615,0.313918 0.444,0.287982 0.73155,0.287982 0.12728,0 0.22534,0.0143 0.34558,-0.0447 0.29402,-0.144261 0.41228,-0.452233 0.58444,-0.703591 0.042,-0.06139 0.10775,-0.106982 0.13945,-0.174298 0.0283,-0.06014 0.0186,-0.131902 0.035,-0.196314 0.0745,-0.292003 0.14111,-0.633222 -0.14056,-0.869856 -0.0835,-0.07014 -0.22826,-0.01405 -0.30738,7.27e-4 z"
         id="path893" />
      <path
         style="fill:#e5ffd5;stroke:#000000;stroke-width:0.0962839px;stroke-linecap:butt;stroke-linejoin:miter;stroke-opacity:1"
         d="m 140.19161,66.993389 c -0.0783,0.03483 -0.15684,0.06927 -0.23502,0.104438 -0.0863,0.0388 -0.18629,0.05001 -0.26409,0.103794 -0.17421,0.120435 -0.58167,0.874605 -0.49794,1.082826 0.13813,0.343479 0.57062,0.577377 0.93331,0.46736 0.2404,-0.07293 0.77638,-0.432308 0.97685,-0.58639 0.33968,-0.26109 0.0235,-0.373585 -0.11999,-0.684814 -0.05,-0.108404 -0.0318,-0.288772 -0.20801,-0.250619 -0.39748,0.08607 -0.74093,0.308696 -1.16374,0.308696"
         id="path895" />
      <path
         style="fill:#e5ffd5;stroke:#000000;stroke-width:0.0962839px;stroke-linecap:butt;stroke-linejoin:miter;stroke-opacity:1"
         d="m 132.83448,74.390648 c 0.13613,0.240197 0.22235,0.511931 0.42146,0.712233 0.26176,0.263335 0.6358,0.36512 0.96049,0.52175 0.10333,0.04985 0.19838,0.116443 0.30363,0.162118 0.27885,0.121014 0.59944,0.158562 0.88938,0.245259 0.18299,0.05472 0.48224,0.212621 0.68437,0.156088 0.19617,-0.05487 0.37192,-0.166616 0.56122,-0.24185 0.34057,-0.135345 0.78349,-0.229 1.07977,-0.453575 0.15122,-0.114631 0.28521,-0.250395 0.42683,-0.376703 0.0897,-0.07996 0.40829,-0.383392 0.48376,-0.500149 0.044,-0.06807 0.0248,-0.165145 0.0688,-0.233232 0.0186,-0.02882 0.0588,-0.03947 0.0767,-0.06877 0.0732,-0.120035 0.13817,-0.283033 0.13817,-0.424914"
         id="path897" />
      <path
         style="fill:#e5ffd5;stroke:#000000;stroke-width:0.0962839px;stroke-linecap:butt;stroke-linejoin:miter;stroke-opacity:1"
         d="m 136.10241,71.068272 c -0.20277,0.05256 -0.41519,0.08277 -0.45469,0.319042 -0.0113,0.06783 0.0192,0.140268 0,0.206321 -0.0183,0.06304 -0.0981,0.250926 -0.0421,0.317048 0.0133,0.01568 0.0422,-0.0065 0.0617,0 0.24375,0.08137 0.3009,0.03691 0.49962,-0.11212 0.029,-0.02176 0.0766,-0.0098 0.10316,-0.03439 0.0146,-0.01354 0.10134,-0.319758 0.10134,-0.35894 0,-0.03439 0.0199,-0.0751 0,-0.103161 -0.0271,-0.03824 -0.0869,-0.0387 -0.12224,-0.06944 -0.0554,-0.04819 -0.0763,-0.143617 -0.14676,-0.164363 -0.0784,-0.02311 -0.1583,0.04875 -0.24004,0.05046 -0.0462,0.0011 -0.12861,-0.07539 -0.0466,-0.07539"
         id="path899" />
      <path
         style="fill:#e5ffd5;stroke:#000000;stroke-width:0.0962839px;stroke-linecap:butt;stroke-linejoin:miter;stroke-opacity:1"
         d="m 129.74526,63.892993 c 0.0622,0.04585 0.13439,0.08062 0.18667,0.137547 0.0155,0.01685 0.0219,0.241445 0.0993,0.171935 0.28514,-0.256075 0.30475,-0.739934 0.53353,-1.043692 0.0391,-0.05195 0.30625,-0.241478 0.30625,-0.306669 0,-0.05019 0.0313,0.09928 0.0664,0.135163 0.0509,0.05198 0.17116,0.115177 0.24193,0.138765 0.18206,0.06069 0.48403,-0.291759 0.49358,-0.2993 0.55242,-0.436122 1.0912,-0.917234 1.6988,-1.273467 0.0926,-0.05427 0.17843,0.540644 0.32982,0.631701 0.064,0.03847 0.6632,-0.05855 0.80188,-0.03544 0.10331,0.01721 0.19976,0.06439 0.3023,0.08571 0.56109,0.11668 1.25453,0.136593 1.81719,0.08939 0.29426,-0.02471 0.65492,-0.171743 0.96544,-0.0991 0.22474,0.05257 0.48957,0.245234 0.63618,0.388727 0.23615,-3.64e-4 0.12121,0.243673 0.21412,0.34024 0.0661,0.06867 0.18012,0.06368 0.26546,0.106082 0.17555,0.08724 0.33604,0.209557 0.5226,0.269758 0.54773,0.176732 1.43813,0.355368 2.04089,0.326848 0.31288,-0.01481 0.61969,-0.09328 0.92692,-0.154282 0.0913,-0.01812 0.17395,-0.09103 0.26663,-0.0827 0.12665,0.01139 0.23709,0.09204 0.35542,0.138616 0.24895,0.098 0.49918,0.192846 0.74641,0.295115 0.53383,0.220823 0.96593,0.407774 1.51171,0.562875 0.11924,0.03388 0.23012,-0.09448 0.35029,-0.124886 0.11814,-0.02991 0.24102,-0.03797 0.36253,-0.04734 0.60768,-0.04686 0.0303,0.209778 -0.22361,0.739257 -0.16613,0.346408 -0.26779,0.720462 -0.38551,1.086161 -0.0114,0.03534 -0.0345,0.125202 0,0.111388 0.10459,-0.04192 0.18646,-0.130581 0.26029,-0.215714 0.1716,-0.197867 0.31917,-0.415484 0.47173,-0.628378 0.13627,-0.190153 0.25732,-0.390947 0.39453,-0.580423 0.0255,-0.03523 0.0641,-0.125013 0.0924,-0.09205 0.0877,0.101945 0.0121,0.383013 0.0692,0.515698 0.0853,0.198035 0.26567,0.242508 0.30744,0.481861 0.0524,0.300417 0,0.755929 0,1.073133 0,0.0107 -0.007,-0.02405 0,-0.03206 0.0175,-0.01969 0.0423,-0.03228 0.0664,-0.04274 0.11184,-0.04847 0.15907,-0.02667 0.21533,-0.138183"
         id="path901" />
      <path
         style="fill:#e5ffd5;stroke:#000000;stroke-width:0.0962839px;stroke-linecap:butt;stroke-linejoin:miter;stroke-opacity:1"
         d="m 129.18212,64.827258 c 0.009,0.221144 -0.0142,0.443295 0,0.66426 0.007,0.107713 0.023,0.215161 0.0472,0.320348 0.004,0.01579 0.0273,0.049 0.0344,0.03439 0.0732,-0.15199 0.0172,-1.347498 0.39844,-1.399897 0.0106,-0.0015 0.004,0.02223 0,0.0321 -0.12686,0.306942 -0.2625,0.610183 -0.39189,0.916062 -0.12829,0.303292 -0.24167,0.613124 -0.38114,0.911437 -0.0785,0.167969 -0.55037,0.895105 -0.55037,1.110531 0,0.01074 0,-0.02147 0,-0.03224 0,-0.122022 0,-0.24404 0,-0.366062 0,-0.418979 -0.0554,-1.260636 0.13764,-1.655877 0.005,-0.0095 10e-4,0.02122 0,0.0317 -0.0416,0.328377 -0.0629,0.66025 -0.1288,0.984616 -0.0575,0.282837 -0.15089,0.557427 -0.24043,0.83181 -0.17351,0.531706 -0.16374,0.242585 -0.16374,0.485228 0,0.01052 0.003,-0.02143 0,-0.03159 -0.0776,-0.289704 0.007,0.136192 -0.0316,-0.18952 -0.0203,-0.172376 -0.0684,-0.266548 -0.0381,-0.443087 0.035,-0.204149 0.13646,-0.262807 0.14654,-0.230856 0.0708,0.224469 -0.007,0.581467 -0.0802,0.796402 -0.0462,0.134664 -0.15688,0.24892 -0.1733,0.390328 -0.004,0.0345 0.0761,-0.008 0.0982,-0.03486 0.11784,-0.142848 0.2147,-0.302025 0.33053,-0.446501 0.19721,-0.245969 0.40336,-0.484652 0.60818,-0.724319 0.23674,-0.277028 0.45788,-0.568959 0.71648,-0.825714 0.45705,-0.453805 1.06188,-0.940772 1.6033,-1.322559 0.075,-0.05285 0.16241,-0.08648 0.23668,-0.140269 0.0287,-0.02081 0.12469,-0.293793 0.1551,-0.334588 0.0723,-0.097 0.17577,-0.167263 0.25186,-0.261315 0.0911,-0.112549 0.12845,-0.273888 0.20758,-0.380717 0.0749,-0.101119 0.47708,-0.05928 0.52211,-0.0662 0.2846,-0.04371 0.57306,-0.08486 0.84492,-0.179731 0.40055,-0.139777 0.78513,-0.324558 1.16145,-0.520421 0.4262,-0.221824 0.83561,-0.475155 1.24246,-0.730738 0.32876,-0.206529 0.63872,-0.441705 0.96322,-0.654868 0.17483,-0.114845 0.33937,-0.25336 0.53442,-0.328929 0.0978,-0.03788 0.21408,-0.02995 0.31457,0 0.14192,0.04228 0.51763,0.340949 0.6309,0.414564 0.0211,0.09193 0.0816,0.01801 0.11923,0.03545 1.03591,0.479711 1.74472,0.864806 2.90761,1.038983 0.3254,0.04873 0.65629,0.04949 0.98499,0.06417 0.0431,0.0018 0.61086,-0.02395 0.7258,0.04204 0.49928,0.286574 1.52513,1.154222 1.89983,1.468886 0.20117,0.168951 0.39009,0.352259 0.59279,0.519384 0.0368,0.03035 0.092,0.07607 0.13327,0.05212 0.0933,-0.05417 0.15884,-0.154563 0.25947,-0.193476 0.0121,-0.0047 -0.003,0.02631 0,0.03892 0.0246,0.10343 0.0384,0.211336 0.0825,0.308084 0.0437,0.09588 0.11188,0.179043 0.17709,0.261796 0.25221,0.320061 0.28694,0.187442 0.55395,0.36532 0.17565,0.117007 0.25653,0.253932 0.37326,0.416435 0.006,0.0088 -0.002,-0.02191 0,-0.03264 0.01,-0.0572 0.0233,-0.11371 0.0349,-0.170564"
         id="path903" />
    </g>
  </g>
</svg>
